<?xml version="1.0" encoding="UTF-8"?> <svg xmlns="http://www.w3.org/2000/svg" width="1600" height="900" viewBox="0 0 1600 900" fill="none"> <path fill-rule="evenodd" clip-rule="evenodd" d="M1600 0H0V900H1600V0ZM546.556 372.495C546.34 371.212 547.243 365.707 548.519 360.403C548.747 359.517 550.439 353.992 552.279 348.123C556.876 333.534 557.575 332.531 562.225 333.954C563.218 334.258 564.866 334.415 565.913 334.258C568.391 333.973 576.725 336.568 578.356 338.198C579.299 339.095 583.38 340.388 620.946 351.715L621.101 351.762C671.096 366.809 671.658 366.978 677.45 365.929C681.85 365.189 684.611 364.122 689.172 361.433C699.865 355.187 705.066 352.824 712.11 351.112C716.906 349.929 719.512 349.509 724.67 349.132C725.773 349.079 727.151 348.979 727.741 348.899C728.804 348.833 733.492 349.138 735.446 349.432C740.788 350.155 746.624 351.681 759.21 355.578C772.861 359.757 777.188 361.163 802.592 369.419L805.221 370.274C812.446 372.659 827.447 377.47 838.591 380.968C843.633 382.571 850.052 384.605 856.548 386.663C864.342 389.132 872.246 391.636 878.013 393.473C884.379 395.474 894.065 398.539 903.741 401.601C910.158 403.631 916.57 405.66 922.006 407.377C926.962 408.957 932.38 410.679 937.619 412.345C946.782 415.257 955.396 417.995 960.026 419.495C967.314 421.814 988.103 428.309 1006.25 433.91C1024.38 439.458 1040.26 444.497 1041.52 445.097C1051.6 449.923 1055.08 451.902 1056.04 453.456C1057.61 455.981 1059.34 459.988 1059.14 460.663C1059.1 460.782 1059.21 461.989 1059.38 463.26C1060.04 468.503 1059.71 473.271 1058.14 480.962C1057.7 483.089 1057.31 485.229 1057.29 485.702C1057.11 488.731 1051.9 506.74 1048.15 517.285C1045.17 525.72 1037.35 542.321 1033.9 547.481C1033.43 548.163 1032.43 549.726 1031.67 550.928C1030.91 552.13 1029.98 553.323 1029.56 553.584C1029.14 553.804 1028.76 554.208 1028.7 554.407C1028.5 555.043 1026.96 556.659 1026.6 556.549C1026.45 556.5 1026.27 556.663 1026.19 556.901C1025.99 557.577 1021.64 560.287 1021.16 560.01C1020.66 559.772 1012.39 557.675 1003.16 555.457C994.499 553.37 971.321 547.578 955.921 543.645C950.919 542.375 939.782 539.139 931.17 536.458C897.56 526.125 843.885 509.343 745.08 478.397C717.599 469.766 706.064 465.843 701.975 463.722C698.871 462.076 694.345 459.255 692.307 457.675C691.261 456.833 689.572 455.534 688.621 454.808C685.862 452.746 683.781 450.457 677.19 442.31C675.779 440.531 672.344 434.002 670.222 429.006C667.57 422.76 666.605 420.943 664.368 418.172C662.292 415.58 658.884 412.798 656.358 411.677C655.628 411.366 654.285 410.781 653.328 410.358C651.613 409.572 645.792 407.572 628.359 401.757C623.348 400.092 617.157 398.023 614.559 397.14C611.972 396.218 605.582 394.088 600.373 392.362C581.763 386.274 571.087 382.527 569.83 381.664C569.509 381.435 569.154 381.457 569.081 381.695C568.984 382.013 568.574 381.931 567.868 381.541C567.161 381.151 566.238 381.042 565.23 381.212C563.018 381.621 554.935 379.059 553.344 377.442C552.75 376.826 551.417 376.07 550.435 375.726C547.558 374.758 546.794 374.133 546.556 372.495Z" fill="#B12636"></path> </svg> 