<?xml version="1.0" encoding="UTF-8"?> <svg xmlns="http://www.w3.org/2000/svg" width="56" height="120" viewBox="0 0 56 120" fill="none"> <path d="M18.592 110C16.896 110 15.4 109.696 14.104 109.088C12.808 108.48 11.8 107.632 11.08 106.544C10.36 105.44 10 104.176 10 102.752V100.952C10 99.512 10.36 98.248 11.08 97.16C11.8 96.056 12.808 95.2 14.104 94.592C15.4 93.984 16.896 93.68 18.592 93.68C20.272 93.68 21.752 93.984 23.032 94.592C24.328 95.2 25.328 96.056 26.032 97.16C26.752 98.248 27.112 99.512 27.112 100.952V102.752C27.112 104.192 26.76 105.464 26.056 106.568C25.352 107.656 24.352 108.504 23.056 109.112C21.776 109.704 20.288 110 18.592 110ZM18.592 106.664C20.192 106.664 21.416 106.336 22.264 105.68C23.112 105.024 23.536 104.072 23.536 102.824V100.904C23.536 99.672 23.104 98.72 22.24 98.048C21.376 97.36 20.152 97.016 18.568 97.016C16.984 97.016 15.752 97.36 14.872 98.048C14.008 98.72 13.576 99.672 13.576 100.904V102.824C13.576 104.056 14.008 105.008 14.872 105.68C15.736 106.336 16.976 106.664 18.592 106.664Z" fill="black"></path> <path d="M40.2492 100.208C42.0732 100.416 43.4572 100.904 44.4012 101.672C45.3612 102.424 45.8412 103.432 45.8412 104.696V104.984C45.8412 106.632 45.1612 107.88 43.8012 108.728C42.4412 109.576 40.4412 110 37.8012 110C35.1772 109.984 33.1852 109.536 31.8252 108.656C30.4812 107.776 29.8092 106.48 29.8092 104.768V104.624H33.3852V104.768C33.3852 105.424 33.7612 105.928 34.5132 106.28C35.2812 106.632 36.3852 106.808 37.8252 106.808C40.7532 106.808 42.2172 106.184 42.2172 104.936V104.672C42.2172 104.096 41.8572 103.672 41.1372 103.4C40.4172 103.112 39.3132 102.968 37.8252 102.968H34.8972V100.16L39.8172 97.112H30.1212V93.968H45.4092V97.112L40.2492 100.208Z" fill="black"></path> </svg> 