<?xml version="1.0" encoding="UTF-8"?> <svg xmlns="http://www.w3.org/2000/svg" width="106" height="106" viewBox="0 0 106 106" fill="none"> <path d="M42.4659 39.8695C42.5764 37.2133 40.4763 35.3318 39.1499 34.1144C38.9289 33.8931 38.5973 33.6717 38.4868 33.4504C37.8236 32.7863 37.6025 30.7942 37.6025 29.7981V16.96H33.955H30.3075V29.7981C30.3075 30.7942 30.0864 32.7863 29.4232 33.4504C29.2022 33.6717 28.9811 33.8931 28.7601 34.1144C27.4337 35.3318 25.3336 37.2133 25.4441 39.8695C25.5547 42.6363 25.4441 48.4887 25.4441 48.9314V49.5954H34.0655H42.6869V48.9314C42.4659 48.4887 42.3553 42.6363 42.4659 39.8695ZM31.6339 18.288H33.955H36.2761V29.1341H31.7444V18.288H31.6339ZM33.955 48.1566H26.66C26.66 42.955 26.7705 42.3043 26.66 39.7588C26.5494 37.7667 28.3179 36.2172 29.5338 35.1105C29.8654 34.8892 30.0864 34.6678 30.3075 34.4465C31.3023 33.4504 31.5233 31.5689 31.5233 30.4622H36.1656C36.1656 31.4583 36.3867 33.4504 37.3814 34.4465C37.6025 34.6678 37.8236 34.8892 38.1552 35.1105C39.371 36.2172 41.1395 37.7667 41.029 39.7588C40.9184 42.3043 41.029 42.955 41.029 48.1566H33.955Z" fill="#7D858C"></path> <path d="M29.2023 39.759H27.876V42.5259H29.2023V39.759Z" fill="#7D858C"></path> <path d="M29.197 44.2957L27.8706 44.2976L27.8781 49.3829L29.2044 49.381L29.197 44.2957Z" fill="#7D858C"></path> <path d="M61.2432 39.8695C61.3537 37.2133 59.2536 35.3318 57.9273 34.1144C57.7062 33.8931 57.3746 33.6717 57.2641 33.4504C56.6009 32.7863 56.3798 30.7942 56.3798 29.7981V16.96H52.7323H49.0848V29.7981C49.0848 30.7942 48.8638 32.7863 48.2006 33.4504C47.9795 33.6717 47.7585 33.8931 47.5374 34.1144C46.211 35.3318 44.1109 37.2133 44.2215 39.8695C44.332 42.6363 44.2215 48.4887 44.2215 48.9314V49.5954H52.8429H61.4643V48.9314C61.2432 48.4887 61.1327 42.6363 61.2432 39.8695ZM50.4112 18.288H52.7323H55.0535V29.1341H50.5217V18.288H50.4112ZM52.7323 48.1566H45.4373C45.4373 42.955 45.5478 42.3043 45.4373 39.7588C45.3268 37.7667 47.0953 36.2172 48.3111 35.1105C48.6427 34.8892 48.8638 34.6678 49.0848 34.4465C50.0796 33.4504 50.3007 31.5689 50.3007 30.4622H54.9429C54.9429 31.4583 55.164 33.4504 56.1588 34.4465C56.3798 34.6678 56.6009 34.8892 56.9325 35.1105C58.1483 36.2172 59.9168 37.7667 59.8063 39.7588C59.6958 42.3043 59.8063 42.955 59.8063 48.1566H52.7323Z" fill="#7D858C"></path> <path d="M47.9792 39.759H46.6528V42.5259H47.9792V39.759Z" fill="#7D858C"></path> <path d="M47.9743 44.2957L46.6479 44.2976L46.6554 49.3829L47.9818 49.381L47.9743 44.2957Z" fill="#7D858C"></path> <path d="M80.0201 39.8695C80.1306 37.2133 78.0305 35.3318 76.7041 34.1144C76.4831 33.8931 76.1515 33.6717 76.041 33.4504C75.3778 32.7863 75.1567 30.7942 75.1567 29.7981V16.96H71.5092H67.8617V29.7981C67.8617 30.7942 67.6406 32.7863 66.9774 33.4504C66.7564 33.6717 66.5353 33.8931 66.3143 34.1144C64.9879 35.3318 62.8878 37.2133 62.9983 39.8695C63.1089 42.6363 62.9983 48.4887 62.9983 48.9314V49.5954H71.6197H80.2411V48.9314C80.0201 48.4887 79.9095 42.6363 80.0201 39.8695ZM69.1881 18.288H71.5092H73.8303V29.1341H69.2986V18.288H69.1881ZM71.5092 48.1566H64.2142C64.2142 42.955 64.3247 42.3043 64.2142 39.7588C64.1036 37.7667 65.8721 36.2172 67.088 35.1105C67.4196 34.8892 67.6406 34.6678 67.8617 34.4465C68.8565 33.4504 69.0775 31.5689 69.0775 30.4622H73.7198C73.7198 31.4583 73.9409 33.4504 74.9356 34.4465C75.1567 34.6678 75.3778 34.8892 75.7094 35.1105C76.9252 36.2172 78.6937 37.7667 78.5832 39.7588C78.4726 42.3043 78.5832 42.955 78.5832 48.1566H71.5092Z" fill="#7D858C"></path> <path d="M66.7561 39.759H65.4297V42.5259H66.7561V39.759Z" fill="#7D858C"></path> <path d="M66.7512 44.2957L65.4248 44.2976L65.4323 49.3829L66.7586 49.381L66.7512 44.2957Z" fill="#7D858C"></path> <path d="M15.7485 59.4007H23.7067V63.2743H15.7485V74.1204H23.5962V78.2153H15.7485V89.0614H90.2462V78.2153H82.288V74.1204H90.2462V63.2743H82.288V59.4007H90.2462V48.5547H15.7485V59.4007ZM88.8093 79.5434V87.8439H17.0749V79.5434H88.8093ZM24.9226 78.2153V74.1204H80.8511V78.2153H24.9226ZM88.8093 64.4918V72.7923H17.0749V64.4918H88.8093ZM25.0331 63.2743V59.4007H80.8511V63.2743H25.0331ZM17.0749 49.7721H88.8093V58.0727H17.0749V49.7721Z" fill="#7D858C"></path> <path d="M21.4961 51.9857C20.2802 51.9857 19.396 52.8711 19.396 53.9779C19.396 55.0846 20.3908 55.97 21.4961 55.97C22.7119 55.97 23.5962 55.0846 23.5962 53.9779C23.7067 52.8711 22.7119 51.9857 21.4961 51.9857ZM21.4961 54.8633C20.9434 54.8633 20.5013 54.4206 20.5013 53.8672C20.5013 53.3138 20.9434 52.8711 21.4961 52.8711C22.0487 52.8711 22.4909 53.3138 22.4909 53.8672C22.6014 54.5312 22.1593 54.8633 21.4961 54.8633Z" fill="#7D858C"></path> <path d="M21.4961 70.6895C22.7119 70.6895 23.5962 69.8041 23.5962 68.6973C23.5962 67.5906 22.6014 66.7052 21.4961 66.7052C20.2802 66.7052 19.396 67.5906 19.396 68.6973C19.396 69.8041 20.3908 70.6895 21.4961 70.6895ZM21.4961 67.7013C22.0487 67.7013 22.4909 68.144 22.4909 68.6973C22.4909 69.2507 22.0487 69.6934 21.4961 69.6934C20.9434 69.6934 20.5013 69.2507 20.5013 68.6973C20.5013 68.144 20.9434 67.7013 21.4961 67.7013Z" fill="#7D858C"></path> <path d="M21.4961 85.852C22.7119 85.852 23.5962 84.9666 23.5962 83.8598C23.5962 82.7531 22.6014 81.8677 21.4961 81.8677C20.2802 81.8677 19.396 82.7531 19.396 83.8598C19.396 84.9666 20.3908 85.852 21.4961 85.852ZM21.4961 82.9744C22.0487 82.9744 22.4909 83.4171 22.4909 83.9705C22.4909 84.5239 22.0487 84.9666 21.4961 84.9666C20.9434 84.9666 20.5013 84.5239 20.5013 83.9705C20.5013 83.4171 20.9434 82.9744 21.4961 82.9744Z" fill="#7D858C"></path> <path d="M82.5093 52.0961C81.2934 52.0961 80.4092 52.9814 80.4092 54.0882C80.4092 55.1949 81.404 56.0803 82.5093 56.0803C83.7251 56.0803 84.6094 55.1949 84.6094 54.0882C84.6094 52.9814 83.6146 52.0961 82.5093 52.0961ZM82.5093 54.9736C81.9566 54.9736 81.5145 54.5309 81.5145 53.9775C81.5145 53.4242 81.9566 52.9814 82.5093 52.9814C83.0619 52.9814 83.504 53.4242 83.504 53.9775C83.504 54.5309 83.0619 54.9736 82.5093 54.9736Z" fill="#7D858C"></path> <path d="M82.5094 70.8C83.7252 70.8 84.6095 69.9146 84.6095 68.8078C84.6095 67.7011 83.6147 66.8157 82.5094 66.8157C81.2935 66.8157 80.4093 67.7011 80.4093 68.8078C80.2988 69.9146 81.2935 70.8 82.5094 70.8ZM82.5094 67.8118C83.062 67.8118 83.5041 68.2544 83.5041 68.8078C83.5041 69.3612 83.062 69.8039 82.5094 69.8039C81.9567 69.8039 81.5146 69.3612 81.5146 68.8078C81.4041 68.2544 81.8462 67.8118 82.5094 67.8118Z" fill="#7D858C"></path> <path d="M82.5094 85.9623C83.7252 85.9623 84.6095 85.0769 84.6095 83.9701C84.6095 82.8634 83.6147 81.978 82.5094 81.978C81.2935 81.978 80.4093 82.8634 80.4093 83.9701C80.2988 85.0769 81.2935 85.9623 82.5094 85.9623ZM82.5094 83.0848C83.062 83.0848 83.5041 83.5275 83.5041 84.0808C83.5041 84.6342 83.062 85.0769 82.5094 85.0769C81.9567 85.0769 81.5146 84.6342 81.5146 84.0808C81.4041 83.5275 81.8462 83.0848 82.5094 83.0848Z" fill="#7D858C"></path> </svg> 