<?xml version="1.0" encoding="UTF-8"?> <svg xmlns="http://www.w3.org/2000/svg" width="56" height="120" viewBox="0 0 56 120" fill="none"> <path d="M18.592 110C16.896 110 15.4 109.696 14.104 109.088C12.808 108.48 11.8 107.632 11.08 106.544C10.36 105.44 10 104.176 10 102.752V100.952C10 99.512 10.36 98.248 11.08 97.16C11.8 96.056 12.808 95.2 14.104 94.592C15.4 93.984 16.896 93.68 18.592 93.68C20.272 93.68 21.752 93.984 23.032 94.592C24.328 95.2 25.328 96.056 26.032 97.16C26.752 98.248 27.112 99.512 27.112 100.952V102.752C27.112 104.192 26.76 105.464 26.056 106.568C25.352 107.656 24.352 108.504 23.056 109.112C21.776 109.704 20.288 110 18.592 110ZM18.592 106.664C20.192 106.664 21.416 106.336 22.264 105.68C23.112 105.024 23.536 104.072 23.536 102.824V100.904C23.536 99.672 23.104 98.72 22.24 98.048C21.376 97.36 20.152 97.016 18.568 97.016C16.984 97.016 15.752 97.36 14.872 98.048C14.008 98.72 13.576 99.672 13.576 100.904V102.824C13.576 104.056 14.008 105.008 14.872 105.68C15.736 106.336 16.976 106.664 18.592 106.664Z" fill="black"></path> <path d="M45.1452 106.664V109.712H30.0492V106.88L37.6092 102.632C38.6332 102.056 39.3852 101.592 39.8652 101.24C40.3612 100.888 40.6972 100.56 40.8732 100.256C41.0492 99.952 41.1372 99.592 41.1372 99.176V98.96C41.1372 98.272 40.8172 97.752 40.1772 97.4C39.5532 97.032 38.6492 96.848 37.4652 96.848C36.2172 96.848 35.2652 97.064 34.6092 97.496C33.9692 97.912 33.6492 98.528 33.6492 99.344V99.824H30.0972V99.32C30.0972 97.48 30.7212 96.08 31.9692 95.12C33.2172 94.16 35.0252 93.68 37.3932 93.68C39.7132 93.68 41.5212 94.136 42.8172 95.048C44.1132 95.944 44.7612 97.192 44.7612 98.792V99.032C44.7612 99.816 44.6012 100.52 44.2812 101.144C43.9612 101.768 43.4172 102.392 42.6492 103.016C41.8972 103.624 40.8412 104.312 39.4812 105.08L36.6492 106.664H45.1452Z" fill="black"></path> </svg> 