<?xml version="1.0" encoding="UTF-8"?> <svg xmlns="http://www.w3.org/2000/svg" width="186" height="94" viewBox="0 0 186 94" fill="none"> <path d="M20 20.3508H24.8099V46.4043H28.9183V50.3624H20V20.3508V20.3508Z" fill="black"></path> <path d="M35.1315 20.3508V45.0515C35.1315 46.254 35.4321 47.0055 36.1836 47.0055C36.9352 47.0055 37.1857 46.254 37.1857 45.0515V20.3508H41.9956V44.6507C41.9956 48.5587 39.8411 50.7132 36.1335 50.7132C32.4259 50.7132 30.2715 48.5587 30.2715 44.6507V20.3508H35.1315Z" fill="black"></path> <path d="M56.2253 44.7509C56.2253 48.3583 54.121 50.4125 50.6639 50.4125H44.3008V20.4008H50.6138C54.0709 20.4008 56.1752 22.4049 56.1752 26.0625V44.7509H56.2253ZM50.263 46.755C51.0647 46.755 51.4154 46.0034 51.4154 44.7007V26.0625C51.4154 24.7097 51.1148 24.0082 50.263 24.0082H49.2109V46.755H50.263Z" fill="black"></path> <path d="M58.4785 20.3508H63.3385V50.3624H58.4785V20.3508Z" fill="black"></path> <path d="M73.46 35.4317H73.5602V20.4008H77.7188V50.4125H73.4099L70.0029 32.8264H69.9027V50.4125H65.7441V20.4008H70.9047L73.46 35.4317Z" fill="black"></path> <path d="M86.937 39.3397H85.985V34.9808H91.5965V50.4626C90.0433 50.4626 88.9411 49.9616 88.5904 48.5587C88.2396 49.7612 86.8869 50.7131 85.1834 50.7131C82.077 50.7131 79.9727 48.5086 79.9727 44.6507V26.1126C79.9727 22.2045 82.2273 20.0501 85.9349 20.0501C89.6425 20.0501 91.5965 22.2045 91.5965 26.1126V32.3253H87.0372V25.7117C87.0372 24.4592 86.7366 23.7076 85.9349 23.7076C85.1333 23.7076 84.7825 24.4592 84.7825 25.7117V45.0014C84.7825 46.2039 85.0832 47.0055 85.9349 47.0055C86.5862 47.0055 86.937 46.5546 86.937 45.8531V39.3397Z" fill="black"></path> <path d="M105.124 39.3397H104.173V34.9808H109.784V50.4626C108.231 50.4626 107.129 49.9616 106.778 48.5587C106.427 49.7612 105.074 50.7131 103.371 50.7131C100.264 50.7131 98.1602 48.5086 98.1602 44.6507V26.1126C98.1602 22.2045 100.415 20.0501 104.122 20.0501C107.83 20.0501 109.784 22.2045 109.784 26.1126V32.3253H105.225V25.7117C105.225 24.4592 104.924 23.7076 104.122 23.7076C103.321 23.7076 102.97 24.4592 102.97 25.7117V45.0014C102.97 46.2039 103.271 47.0055 104.122 47.0055C104.774 47.0055 105.124 46.5546 105.124 45.8531V39.3397Z" fill="black"></path> <path d="M119.104 39.1894C119.104 37.8867 118.803 37.1853 117.951 37.1853H116.899V50.4125H112.039V20.4008H118.352C121.809 20.4008 123.913 22.4049 123.913 26.0625V31.2732C123.913 32.9767 123.463 34.3795 121.559 35.2814C123.463 36.2334 123.913 37.6362 123.913 39.3898V47.0556C123.913 48.1579 124.064 49.3102 124.515 50.3624H119.655C119.154 49.4104 119.104 48.1078 119.104 47.0556V39.1894ZM119.104 26.0625C119.104 24.7097 118.803 24.0082 117.951 24.0082H116.899V33.5278H117.951C118.753 33.5278 119.104 32.7763 119.104 31.5237V26.0625Z" fill="black"></path> <path d="M137.992 44.6506C137.992 48.5587 135.737 50.7131 132.079 50.7131C128.372 50.7131 126.117 48.5587 126.117 44.6506V26.0625C126.117 22.1544 128.372 20 132.079 20C135.787 20 137.992 22.1544 137.992 26.0625V44.6506ZM132.079 47.0055C132.831 47.0055 133.182 46.2539 133.182 45.0515V25.6616C133.182 24.4592 132.881 23.7076 132.079 23.7076C131.278 23.7076 130.927 24.4592 130.927 25.6616V45.0515C130.927 46.304 131.278 47.0055 132.079 47.0055Z" fill="black"></path> <path d="M144.958 20.3508V45.0515C144.958 46.254 145.258 47.0055 146.01 47.0055C146.761 47.0055 147.012 46.254 147.012 45.0515V20.3508H151.822V44.6507C151.822 48.5587 149.667 50.7132 145.96 50.7132C142.252 50.7132 140.098 48.5587 140.098 44.6507V20.3508H144.958Z" fill="black"></path> <path d="M154.125 50.3624V20.3508H160.438C163.895 20.3508 165.999 22.3549 165.999 26.0124V33.3775C165.999 36.9849 163.895 39.0392 160.438 39.0392H158.935V50.3624H154.125ZM160.037 35.4318C160.839 35.4318 161.19 34.6802 161.19 33.4276V26.0625C161.19 24.7097 160.889 24.0083 160.037 24.0083H158.985V35.4819H160.037V35.4318Z" fill="black"></path> <path d="M20 59.9636H24.3089V61.7673H22.2045V65.8257H24.0583V67.6294H22.2045V71.838H24.3089V73.6417H20V59.9636Z" fill="black"></path> <path d="M30.2706 65.1744H28.2164V62.3686C28.2164 61.8175 28.066 61.4667 27.7153 61.4667C27.3646 61.4667 27.2143 61.8175 27.2143 62.3686V64.0721C27.2143 64.8236 27.4648 65.0741 28.0159 65.6253L29.0681 66.5772C29.97 67.429 30.2706 68.0302 30.2706 69.383V71.0364C30.2706 72.8401 29.2685 73.8422 27.6151 73.8422C25.9617 73.8422 25.0098 72.8401 25.0098 71.0364V68.3809H27.1141V71.2368C27.1141 71.7879 27.2644 72.1387 27.6151 72.1387C27.9658 72.1387 28.1161 71.7879 28.1161 71.2368V69.4331C28.1161 68.6816 27.9658 68.4811 27.3646 67.9801L26.2623 66.9781C25.4607 66.2265 25.0599 65.5752 25.0599 64.3226V62.5189C25.0599 60.7152 26.0619 59.7131 27.7153 59.7131C29.3687 59.7131 30.2706 60.7152 30.2706 62.5189V65.1744Z" fill="black"></path> <path d="M34.4798 61.7673V73.6918H32.2752V61.7673H30.8223V59.9636H35.9829V61.7673H34.4798Z" fill="black"></path> <path d="M35.7832 73.6919V71.287H37.9376V73.6919H35.7832Z" fill="black"></path> <path d="M41.6453 73.6919V62.8696H40.6934V61.2163H40.7936C41.5451 61.1662 42.0962 61.0659 42.3468 60.0639V59.9136H43.7997V73.6919H41.6453Z" fill="black"></path> <path d="M48.1578 66.9781C47.9072 67.5793 47.3561 68.0302 46.6547 68.0302C45.6526 68.0302 44.9512 67.2286 44.9512 65.9259V62.6191C44.9512 60.8154 45.9532 59.8635 47.6567 59.8635C49.3602 59.8635 50.3623 60.8655 50.3623 62.6191V71.1366C50.3623 72.9403 49.3602 73.8923 47.6567 73.8923C45.9532 73.8923 45.0013 72.8902 45.0013 71.1366V68.6816H47.1056V71.337C47.1056 71.8882 47.2559 72.2389 47.6066 72.2389C47.9574 72.2389 48.1578 71.8882 48.1578 71.337V66.9781V66.9781ZM47.6567 61.5169C47.306 61.5169 47.1557 61.8676 47.1557 62.4187V65.6253C47.1557 66.1764 47.306 66.5272 47.6567 66.5272C48.0074 66.5272 48.1578 66.1764 48.1578 65.6253V62.4187C48.1578 61.8175 48.0074 61.5169 47.6567 61.5169Z" fill="black"></path> <path d="M54.5718 66.9781C54.3213 67.5793 53.7702 68.0302 53.0687 68.0302C52.0667 68.0302 51.3652 67.2286 51.3652 65.9259V62.6191C51.3652 60.8154 52.3673 59.8635 54.0708 59.8635C55.7743 59.8635 56.7763 60.8655 56.7763 62.6191V71.1366C56.7763 72.9403 55.7743 73.8923 54.0708 73.8923C52.3673 73.8923 51.4153 72.8902 51.4153 71.1366V68.6816H53.5197V71.337C53.5197 71.8882 53.67 72.2389 54.0207 72.2389C54.3714 72.2389 54.5718 71.8882 54.5718 71.337V66.9781V66.9781ZM54.0708 61.5169C53.7201 61.5169 53.5698 61.8676 53.5698 62.4187V65.6253C53.5698 66.1764 53.7201 66.5272 54.0708 66.5272C54.4215 66.5272 54.5718 66.1764 54.5718 65.6253V62.4187C54.5718 61.8175 54.4215 61.5169 54.0708 61.5169Z" fill="black"></path> <path d="M60.2337 67.6795H59.2316V65.7755H60.2337C60.5844 65.7755 60.7848 65.5751 60.7848 65.1743V62.3685C60.7848 61.8174 60.6345 61.4667 60.2838 61.4667C59.933 61.4667 59.7827 61.8174 59.7827 62.3685V64.8737H57.7285V62.569C57.7285 60.7652 58.5803 59.8133 60.2838 59.8133C61.9873 59.8133 62.9893 60.8154 62.9893 62.569V64.8737C62.9893 65.9258 62.4382 66.5772 61.837 66.7275C62.4382 66.8778 62.9893 67.5792 62.9893 68.6314V71.0865C62.9893 72.8902 61.9873 73.8421 60.2838 73.8421C58.5803 73.8421 57.7285 72.8401 57.7285 71.0865V68.6314H59.7827V71.2869C59.7827 71.838 59.933 72.1887 60.2838 72.1887C60.6345 72.1887 60.7848 71.838 60.7848 71.2869V68.3308C60.7848 67.8799 60.5844 67.6795 60.2337 67.6795Z" fill="black"></path> </svg> 