<?xml version="1.0" encoding="UTF-8"?> <svg xmlns="http://www.w3.org/2000/svg" width="106" height="106" viewBox="0 0 106 106" fill="none"> <path d="M31.5462 99.6314H50.5771C50.5771 98.201 50.6876 63.5402 50.5771 60.7893C50.4665 59.0288 50.0048 47.5748 50.0048 47.5748V43.0738C48.6785 38.5624 48.3469 30.64 48.3469 30.1998V18.0961H49.6733V14.4649H48.3469V12.0442H38.9518V14.4649H37.6254V17.986H38.9518V30.0898C38.9518 30.4199 38.6202 38.3424 37.2938 42.9638C36.7412 44.7244 35.8569 47.3652 34.8621 50.006C33.2042 54.6274 31.6567 58.9188 31.5462 60.7893C31.4357 63.5402 31.5462 97.4308 31.5462 98.8612V99.6314ZM49.3656 98.311H32.8726C32.8726 96.7705 32.8726 93.0294 32.8726 88.2979H49.3656C49.3656 92.9193 49.3656 96.7705 49.3656 98.311ZM40.3887 13.3646H47.131V14.4649H40.3887V13.3646ZM39.0623 15.8954H48.4574V16.7757H39.0623V15.8954ZM47.0205 17.986V28.5493H40.3887V17.986H47.0205ZM32.9831 60.8994C33.0936 59.2489 34.7516 54.6274 36.1885 50.5562C37.1833 47.8053 38.0675 45.2745 38.6202 43.4039C40.0571 38.5624 40.3887 30.5299 40.3887 30.1998V29.9798H47.0205V30.1998C47.0205 30.5299 47.3521 38.5624 48.789 43.4039C49.3416 45.2745 49.3656 48.7792 49.3656 52.3925C49.3656 52.3925 49.2551 59.2489 49.3656 60.7893C49.3656 61.2295 49.3656 62.4399 49.3656 64.0904H32.8726C32.8726 62.4399 32.8726 61.3395 32.9831 60.8994ZM32.8726 65.4108H49.3656C49.3656 70.6924 49.3656 79.6052 49.3656 86.8675H32.8726C32.8726 79.6052 32.8726 70.6924 32.8726 65.4108Z" fill="#7D858C"></path> <path d="M35.4147 67.061H34.0884V70.032H35.4147V67.061Z" fill="#7D858C"></path> <path d="M35.4147 71.9028H34.0884V79.4952H35.4147V71.9028Z" fill="#7D858C"></path> <path d="M74.1403 39.8491C74.2499 36.139 71.2904 33.411 69.2077 31.556C68.7693 31.2286 68.4405 30.9013 68.1116 30.5739C66.9059 29.2645 66.6867 25.9909 66.6867 24.8997V12.6784H67.8924V8.31359H66.5771V6.02209H61.5349H56.4928V8.31359H55.1775V12.6784H56.3832V24.8997C56.3832 26.1 56.2736 29.3736 54.9582 30.5739C54.6294 30.9013 54.3006 31.2286 53.8621 31.556C51.8891 33.411 48.82 36.139 48.9296 39.8491C49.0392 43.8865 48.9296 98.6643 48.9296 99.2099V99.8646H61.4253H73.921V99.2099C74.1403 98.6643 74.0306 43.8865 74.1403 39.8491ZM58.0274 7.33152H61.6445H65.2617V8.31359H57.9178V7.33152H58.0274ZM56.712 9.62302H57.3697H58.0274H65.3713H66.3578H66.5771V11.2598H66.1386H65.481H57.9178H57.0409H56.712V9.62302V9.62302ZM65.481 24.1359H57.9178V12.5692H65.481V24.1359ZM61.6445 98.5552H50.4642C50.4642 95.4998 50.4642 83.715 50.5738 71.4936H72.7153C72.7153 83.715 72.7153 95.609 72.8249 98.5552H61.6445ZM50.5738 50.4336H72.7153C72.7153 55.9987 72.7153 63.0914 72.7153 70.1842H50.5738C50.5738 63.0914 50.5738 55.9987 50.5738 50.4336ZM72.8249 39.7399C72.8249 40.722 72.7153 44.1047 72.7153 49.0151H50.5738C50.5738 44.2138 50.5738 40.722 50.4642 39.7399C50.3546 36.6846 52.9852 34.284 54.9582 32.5381C55.3967 32.2107 55.7255 31.7742 56.0544 31.4469C57.5889 29.9192 57.8081 26.8639 57.8081 25.4453H65.3713C65.3713 26.8639 65.7002 29.9192 67.1251 31.4469C67.454 31.7742 67.7828 32.1016 68.2212 32.5381C70.3039 34.284 72.9345 36.6846 72.8249 39.7399Z" fill="#7D858C"></path> <path d="M53.643 53.3798H52.3276V56.4351H53.643V53.3798Z" fill="#7D858C"></path> <path d="M53.643 58.3998H52.3276V66.2563H53.643V58.3998Z" fill="#7D858C"></path> </svg> 