<?xml version="1.0" encoding="UTF-8"?> <svg xmlns="http://www.w3.org/2000/svg" width="186" height="94" viewBox="0 0 186 94" fill="none"> <path d="M20 20.3507H24.8099V46.4042H28.9183V50.3624H20V20.3507V20.3507Z" fill="white"></path> <path d="M35.131 20.3507V45.0515C35.131 46.2539 35.4316 47.0055 36.1831 47.0055C36.9347 47.0055 37.1852 46.2539 37.1852 45.0515V20.3507H41.9951V44.6506C41.9951 48.5587 39.8407 50.7131 36.133 50.7131C32.4254 50.7131 30.271 48.5587 30.271 44.6506V20.3507H35.131Z" fill="white"></path> <path d="M56.2244 44.7509C56.2244 48.3583 54.1201 50.4126 50.663 50.4126H44.2999V20.4009H50.6129C54.07 20.4009 56.1743 22.405 56.1743 26.0625V44.7509H56.2244ZM50.2622 46.755C51.0638 46.755 51.4145 46.0035 51.4145 44.7008V26.0625C51.4145 24.7097 51.1139 24.0083 50.2622 24.0083H49.21V46.755H50.2622Z" fill="white"></path> <path d="M58.479 20.3507H63.339V50.3624H58.479V20.3507Z" fill="white"></path> <path d="M73.4597 35.4318H73.56V20.4009H77.7185V50.4126H73.4096L70.0026 32.8264H69.9024V50.4126H65.7439V20.4009H70.9045L73.4597 35.4318Z" fill="white"></path> <path d="M86.9377 39.3398H85.9857V34.9809H91.5973V50.4627C90.0441 50.4627 88.9418 49.9616 88.5911 48.5588C88.2404 49.7612 86.8876 50.7132 85.1841 50.7132C82.0777 50.7132 79.9734 48.5086 79.9734 44.6507V26.1126C79.9734 22.2046 82.228 20.0502 85.9356 20.0502C89.6433 20.0502 91.5973 22.2046 91.5973 26.1126V32.3254H87.0379V25.7118C87.0379 24.4592 86.7373 23.7077 85.9356 23.7077C85.134 23.7077 84.7833 24.4592 84.7833 25.7118V45.0014C84.7833 46.2039 85.0839 47.0056 85.9356 47.0056C86.587 47.0056 86.9377 46.5546 86.9377 45.8532V39.3398Z" fill="white"></path> <path d="M105.125 39.3398H104.173V34.9809H109.785V50.4627C108.231 50.4627 107.129 49.9616 106.778 48.5588C106.428 49.7612 105.075 50.7132 103.371 50.7132C100.265 50.7132 98.1606 48.5086 98.1606 44.6507V26.1126C98.1606 22.2046 100.415 20.0502 104.123 20.0502C107.831 20.0502 109.785 22.2046 109.785 26.1126V32.3254H105.225V25.7118C105.225 24.4592 104.925 23.7077 104.123 23.7077C103.321 23.7077 102.971 24.4592 102.971 25.7118V45.0014C102.971 46.2039 103.271 47.0056 104.123 47.0056C104.774 47.0056 105.125 46.5546 105.125 45.8532V39.3398Z" fill="white"></path> <path d="M119.104 39.1895C119.104 37.8868 118.803 37.1854 117.951 37.1854H116.899V50.4126H112.039V20.4009H118.352C121.809 20.4009 123.914 22.405 123.914 26.0625V31.2732C123.914 32.9767 123.463 34.3796 121.559 35.2815C123.463 36.2334 123.914 37.6363 123.914 39.3899V47.0557C123.914 48.1579 124.064 49.3103 124.515 50.3624H119.655C119.154 49.4105 119.104 48.1078 119.104 47.0557V39.1895ZM119.104 26.0625C119.104 24.7097 118.803 24.0083 117.951 24.0083H116.899V33.5279H117.951C118.753 33.5279 119.104 32.7763 119.104 31.5237V26.0625Z" fill="white"></path> <path d="M137.992 44.6506C137.992 48.5587 135.738 50.7131 132.08 50.7131C128.373 50.7131 126.118 48.5587 126.118 44.6506V26.0625C126.118 22.1544 128.373 20 132.08 20C135.788 20 137.992 22.1544 137.992 26.0625V44.6506ZM132.08 47.0055C132.832 47.0055 133.183 46.2539 133.183 45.0515V25.6616C133.183 24.4592 132.882 23.7076 132.08 23.7076C131.279 23.7076 130.928 24.4592 130.928 25.6616V45.0515C130.928 46.304 131.279 47.0055 132.08 47.0055Z" fill="white"></path> <path d="M144.957 20.3507V45.0515C144.957 46.2539 145.257 47.0055 146.009 47.0055C146.76 47.0055 147.011 46.2539 147.011 45.0515V20.3507H151.821V44.6506C151.821 48.5587 149.666 50.7131 145.959 50.7131C142.251 50.7131 140.097 48.5587 140.097 44.6506V20.3507H144.957Z" fill="white"></path> <path d="M154.126 50.3624V20.3507H160.439C163.896 20.3507 166 22.3548 166 26.0123V33.3775C166 36.9849 163.896 39.0391 160.439 39.0391H158.935V50.3624H154.126ZM160.038 35.4317C160.839 35.4317 161.19 34.6801 161.19 33.4276V26.0624C161.19 24.7097 160.89 24.0082 160.038 24.0082H158.986V35.4818H160.038V35.4317Z" fill="white"></path> <path d="M20 59.9636H24.3089V61.7673H22.2045V65.8257H24.0583V67.6294H22.2045V71.838H24.3089V73.6417H20V59.9636Z" fill="white"></path> <path d="M30.2712 65.1744H28.217V62.3686C28.217 61.8175 28.0667 61.4667 27.7159 61.4667C27.3652 61.4667 27.2149 61.8175 27.2149 62.3686V64.0721C27.2149 64.8236 27.4654 65.0741 28.0166 65.6253L29.0687 66.5772C29.9706 67.429 30.2712 68.0302 30.2712 69.383V71.0364C30.2712 72.8401 29.2691 73.8422 27.6157 73.8422C25.9623 73.8422 25.0104 72.8401 25.0104 71.0364V68.3809H27.1147V71.2368C27.1147 71.7879 27.265 72.1387 27.6157 72.1387C27.9664 72.1387 28.1168 71.7879 28.1168 71.2368V69.4331C28.1168 68.6816 27.9664 68.4811 27.3652 67.9801L26.2629 66.9781C25.4613 66.2265 25.0605 65.5752 25.0605 64.3226V62.5189C25.0605 60.7152 26.0625 59.7131 27.7159 59.7131C29.3693 59.7131 30.2712 60.7152 30.2712 62.5189V65.1744Z" fill="white"></path> <path d="M34.4797 61.7673V73.6918H32.2751V61.7673H30.8221V59.9636H35.9827V61.7673H34.4797Z" fill="white"></path> <path d="M35.7823 73.6919V71.287H37.9368V73.6919H35.7823Z" fill="white"></path> <path d="M41.6445 73.6919V62.8696H40.6925V61.2163H40.7927C41.5443 61.1662 42.0954 61.0659 42.3459 60.0639V59.9136H43.7989V73.6919H41.6445Z" fill="white"></path> <path d="M48.1579 66.978C47.9074 67.5793 47.3562 68.0302 46.6548 68.0302C45.6527 68.0302 44.9513 67.2285 44.9513 65.9259V62.6191C44.9513 60.8154 45.9533 59.8634 47.6569 59.8634C49.3604 59.8634 50.3624 60.8655 50.3624 62.6191V71.1366C50.3624 72.9403 49.3604 73.8922 47.6569 73.8922C45.9533 73.8922 45.0014 72.8902 45.0014 71.1366V68.6815H47.1057V71.337C47.1057 71.8881 47.256 72.2388 47.6068 72.2388C47.9575 72.2388 48.1579 71.8881 48.1579 71.337V66.978V66.978ZM47.6569 61.5168C47.3061 61.5168 47.1558 61.8675 47.1558 62.4187V65.6252C47.1558 66.1764 47.3061 66.5271 47.6569 66.5271C48.0076 66.5271 48.1579 66.1764 48.1579 65.6252V62.4187C48.1579 61.8174 48.0076 61.5168 47.6569 61.5168Z" fill="white"></path> <path d="M54.571 66.978C54.3205 67.5793 53.7693 68.0302 53.0679 68.0302C52.0658 68.0302 51.3644 67.2285 51.3644 65.9259V62.6191C51.3644 60.8154 52.3664 59.8634 54.0699 59.8634C55.7734 59.8634 56.7755 60.8655 56.7755 62.6191V71.1366C56.7755 72.9403 55.7734 73.8922 54.0699 73.8922C52.3664 73.8922 51.4145 72.8902 51.4145 71.1366V68.6815H53.5188V71.337C53.5188 71.8881 53.6691 72.2388 54.0198 72.2388C54.3706 72.2388 54.571 71.8881 54.571 71.337V66.978V66.978ZM54.0699 61.5168C53.7192 61.5168 53.5689 61.8675 53.5689 62.4187V65.6252C53.5689 66.1764 53.7192 66.5271 54.0699 66.5271C54.4207 66.5271 54.571 66.1764 54.571 65.6252V62.4187C54.571 61.8174 54.4207 61.5168 54.0699 61.5168Z" fill="white"></path> <path d="M60.2327 67.6795H59.2306V65.7756H60.2327C60.5834 65.7756 60.7838 65.5752 60.7838 65.1744V62.3686C60.7838 61.8175 60.6335 61.4668 60.2828 61.4668C59.9321 61.4668 59.7818 61.8175 59.7818 62.3686V64.8737H57.7275V62.569C57.7275 60.7653 58.5793 59.8134 60.2828 59.8134C61.9863 59.8134 62.9883 60.8154 62.9883 62.569V64.8737C62.9883 65.9259 62.4372 66.5773 61.836 66.7276C62.4372 66.8779 62.9883 67.5793 62.9883 68.6315V71.0865C62.9883 72.8902 61.9863 73.8422 60.2828 73.8422C58.5793 73.8422 57.7275 72.8401 57.7275 71.0865V68.6315H59.7818V71.2869C59.7818 71.8381 59.9321 72.1888 60.2828 72.1888C60.6335 72.1888 60.7838 71.8381 60.7838 71.2869V68.3309C60.7838 67.8799 60.5834 67.6795 60.2327 67.6795Z" fill="white"></path> </svg> 