<?xml version="1.0" encoding="UTF-8"?> <svg xmlns="http://www.w3.org/2000/svg" width="146" height="54" viewBox="0 0 146 54" fill="none"> <path d="M0 0.350708H4.80989V26.4042H8.91833V30.3624H0V0.350708Z" fill="black"></path> <path d="M15.131 0.350708V25.0515C15.131 26.2539 15.4317 27.0055 16.1832 27.0055C16.9348 27.0055 17.1853 26.2539 17.1853 25.0515V0.350708H21.9951V24.6506C21.9951 28.5587 19.8407 30.7131 16.1331 30.7131C12.4255 30.7131 10.2711 28.5587 10.2711 24.6506V0.350708H15.131Z" fill="black"></path> <path d="M36.2244 24.7509C36.2244 28.3583 34.1201 30.4125 30.663 30.4125H24.2999V0.400879H30.6129C34.07 0.400879 36.1743 2.405 36.1743 6.06251V24.7509H36.2244ZM30.2622 26.755C31.0638 26.755 31.4145 26.0035 31.4145 24.7008V6.06251C31.4145 4.70973 31.1139 4.0083 30.2622 4.0083H29.21V26.755H30.2622Z" fill="black"></path> <path d="M38.4791 0.350708H43.3391V30.3624H38.4791V0.350708Z" fill="black"></path> <path d="M53.4597 15.4318H53.56V0.400879H57.7185V30.4125H53.4096L50.0026 12.8264H49.9024V30.4125H45.7439V0.400879H50.9045L53.4597 15.4318Z" fill="black"></path> <path d="M66.9376 19.3398H65.9857V14.9809H71.5972V30.4627C70.044 30.4627 68.9417 29.9616 68.591 28.5588C68.2403 29.7612 66.8875 30.7132 65.184 30.7132C62.0776 30.7132 59.9733 28.5086 59.9733 24.6507V6.11263C59.9733 2.2046 62.228 0.0501709 65.9356 0.0501709C69.6432 0.0501709 71.5972 2.2046 71.5972 6.11263V12.3254H67.0378V5.71181C67.0378 4.45923 66.7372 3.70769 65.9356 3.70769C65.1339 3.70769 64.7832 4.45923 64.7832 5.71181V25.0014C64.7832 26.2039 65.0838 27.0056 65.9356 27.0056C66.5869 27.0056 66.9376 26.5546 66.9376 25.8532V19.3398Z" fill="black"></path> <path d="M85.125 19.3398H84.173V14.9809H89.7845V30.4627C88.2313 30.4627 87.1291 29.9616 86.7784 28.5588C86.4276 29.7612 85.0748 30.7132 83.3713 30.7132C80.265 30.7132 78.1606 28.5086 78.1606 24.6507V6.11263C78.1606 2.2046 80.4153 0.0501709 84.1229 0.0501709C87.8305 0.0501709 89.7845 2.2046 89.7845 6.11263V12.3254H85.2252V5.71181C85.2252 4.45923 84.9245 3.70769 84.1229 3.70769C83.3212 3.70769 82.9705 4.45923 82.9705 5.71181V25.0014C82.9705 26.2039 83.2711 27.0056 84.1229 27.0056C84.7742 27.0056 85.125 26.5546 85.125 25.8532V19.3398Z" fill="black"></path> <path d="M99.1036 19.1895C99.1036 17.8868 98.803 17.1854 97.9513 17.1854H96.8991V30.4125H92.0391V0.400879H98.3521C101.809 0.400879 103.914 2.405 103.914 6.06251V11.2732C103.914 12.9767 103.463 14.3796 101.559 15.2815C103.463 16.2334 103.914 17.6363 103.914 19.3899V27.0557C103.914 28.1579 104.064 29.3103 104.515 30.3624H99.6548C99.1537 29.4105 99.1036 28.1078 99.1036 27.0557V19.1895ZM99.1036 6.06251C99.1036 4.70973 98.803 4.0083 97.9513 4.0083H96.8991V13.5279H97.9513C98.7529 13.5279 99.1036 12.7763 99.1036 11.5237V6.06251Z" fill="black"></path> <path d="M117.992 24.6507C117.992 28.5587 115.738 30.7131 112.08 30.7131C108.373 30.7131 106.118 28.5587 106.118 24.6507V6.06245C106.118 2.15442 108.373 0 112.08 0C115.788 0 117.992 2.15442 117.992 6.06245V24.6507ZM112.08 27.0055C112.832 27.0055 113.183 26.2539 113.183 25.0515V5.66163C113.183 4.45916 112.882 3.70762 112.08 3.70762C111.279 3.70762 110.928 4.45916 110.928 5.66163V25.0515C110.928 26.304 111.279 27.0055 112.08 27.0055Z" fill="black"></path> <path d="M124.957 0.350708V25.0515C124.957 26.2539 125.257 27.0055 126.009 27.0055C126.76 27.0055 127.011 26.2539 127.011 25.0515V0.350708H131.821V24.6506C131.821 28.5587 129.666 30.7131 125.959 30.7131C122.251 30.7131 120.097 28.5587 120.097 24.6506V0.350708H124.957Z" fill="black"></path> <path d="M134.126 30.3624V0.350708H140.439C143.896 0.350708 146 2.35483 146 6.01234V13.3775C146 16.9849 143.896 19.0391 140.439 19.0391H138.935V30.3624H134.126ZM140.038 15.4317C140.839 15.4317 141.19 14.6801 141.19 13.4276V6.06244C141.19 4.70966 140.89 4.00822 140.038 4.00822H138.986V15.4818H140.038V15.4317Z" fill="black"></path> <path d="M0 39.5813H4.30886V41.385H2.20453V45.4433H4.05834V47.247H2.20453V51.4557H4.30886V53.2594H0V39.5813Z" fill="black"></path> <path d="M10.2712 44.792H8.21696V41.9863C8.21696 41.4351 8.06665 41.0844 7.71593 41.0844C7.36521 41.0844 7.2149 41.4351 7.2149 41.9863V43.6898C7.2149 44.4413 7.46542 44.6918 8.01655 45.243L9.06872 46.1949C9.97057 47.0467 10.2712 47.6479 10.2712 49.0007V50.6541C10.2712 52.4578 9.26912 53.4598 7.61573 53.4598C5.96233 53.4598 5.01038 52.4578 5.01038 50.6541V47.9986H7.1147V50.8545C7.1147 51.4056 7.26501 51.7563 7.61573 51.7563C7.96645 51.7563 8.11676 51.4056 8.11676 50.8545V49.0508C8.11676 48.2992 7.96645 48.0988 7.36521 47.5978L6.26295 46.5957C5.4613 45.8442 5.06048 45.1929 5.06048 43.9403V42.1366C5.06048 40.3329 6.06253 39.3308 7.71593 39.3308C9.36933 39.3308 10.2712 40.3329 10.2712 42.1366V44.792Z" fill="black"></path> <path d="M14.4797 41.385V53.3095H12.2752V41.385H10.8222V39.5813H15.9828V41.385H14.4797Z" fill="black"></path> <path d="M15.7824 53.3096V50.9047H17.9368V53.3096H15.7824Z" fill="black"></path> <path d="M21.6445 53.3096V42.4873H20.6925V40.8339H20.7927C21.5443 40.7838 22.0954 40.6836 22.3459 39.6816V39.5312H23.7989V53.3096H21.6445Z" fill="black"></path> <path d="M28.1579 46.5957C27.9074 47.1969 27.3563 47.6479 26.6549 47.6479C25.6528 47.6479 24.9514 46.8462 24.9514 45.5435V42.2367C24.9514 40.433 25.9534 39.4811 27.6569 39.4811C29.3604 39.4811 30.3625 40.4831 30.3625 42.2367V50.7542C30.3625 52.5579 29.3604 53.5099 27.6569 53.5099C25.9534 53.5099 25.0015 52.5078 25.0015 50.7542V48.2992H27.1058V50.9547C27.1058 51.5058 27.2561 51.8565 27.6068 51.8565C27.9575 51.8565 28.1579 51.5058 28.1579 50.9547V46.5957ZM27.6569 41.1345C27.3062 41.1345 27.1559 41.4852 27.1559 42.0363V45.2429C27.1559 45.794 27.3062 46.1448 27.6569 46.1448C28.0076 46.1448 28.1579 45.794 28.1579 45.2429V42.0363C28.1579 41.4351 28.0076 41.1345 27.6569 41.1345Z" fill="black"></path> <path d="M34.571 46.5957C34.3205 47.1969 33.7694 47.6479 33.0679 47.6479C32.0659 47.6479 31.3644 46.8462 31.3644 45.5435V42.2367C31.3644 40.433 32.3665 39.4811 34.07 39.4811C35.7735 39.4811 36.7756 40.4831 36.7756 42.2367V50.7542C36.7756 52.5579 35.7735 53.5099 34.07 53.5099C32.3665 53.5099 31.4145 52.5078 31.4145 50.7542V48.2992H33.5189V50.9547C33.5189 51.5058 33.6692 51.8565 34.0199 51.8565C34.3706 51.8565 34.571 51.5058 34.571 50.9547V46.5957ZM34.07 41.1345C33.7193 41.1345 33.569 41.4852 33.569 42.0363V45.2429C33.569 45.794 33.7193 46.1448 34.07 46.1448C34.4207 46.1448 34.571 45.794 34.571 45.2429V42.0363C34.571 41.4351 34.4207 41.1345 34.07 41.1345Z" fill="black"></path> <path d="M40.2327 47.2972H39.2306V45.3933H40.2327C40.5834 45.3933 40.7838 45.1929 40.7838 44.792V41.9863C40.7838 41.4351 40.6335 41.0844 40.2828 41.0844C39.9321 41.0844 39.7818 41.4351 39.7818 41.9863V44.4914H37.7275V42.1867C37.7275 40.383 38.5793 39.431 40.2828 39.431C41.9863 39.431 42.9883 40.4331 42.9883 42.1867V44.4914C42.9883 45.5436 42.4372 46.1949 41.836 46.3452C42.4372 46.4955 42.9883 47.197 42.9883 48.2491V50.7042C42.9883 52.5079 41.9863 53.4599 40.2828 53.4599C38.5793 53.4599 37.7275 52.4578 37.7275 50.7042V48.2491H39.7818V50.9046C39.7818 51.4557 39.9321 51.8065 40.2828 51.8065C40.6335 51.8065 40.7838 51.4557 40.7838 50.9046V47.9485C40.7838 47.4976 40.5834 47.2972 40.2327 47.2972Z" fill="black"></path> </svg> 