<?xml version="1.0" encoding="UTF-8"?> <svg xmlns="http://www.w3.org/2000/svg" width="106" height="106" viewBox="0 0 106 106" fill="none"> <path d="M22.2832 74.2605H18.9673V75.5886H22.2832V74.2605Z" fill="#7D858C"></path> <path d="M33.115 74.2605H24.4937V75.5886H33.115V74.2605Z" fill="#7D858C"></path> <path d="M48.2578 84.1108H44.9419V85.4389H48.2578V84.1108Z" fill="#7D858C"></path> <path d="M37.2051 79.2408H24.8257V80.5689H37.2051V79.2408Z" fill="#7D858C"></path> <path d="M48.0369 79.2408H39.4155V80.5689H48.0369V79.2408Z" fill="#7D858C"></path> <path d="M77.7695 76.3638H74.4536V77.6919H77.7695V76.3638Z" fill="#7D858C"></path> <path d="M72.243 76.3638H63.6216V77.6919H72.243V76.3638Z" fill="#7D858C"></path> <path d="M88.8227 65.7388H81.3066V67.0669H88.8227V65.7388Z" fill="#7D858C"></path> <path d="M86.0591 70.1659H73.6797V71.494H86.0591V70.1659Z" fill="#7D858C"></path> <path d="M57.874 84.1107H50.4684V85.4388H58.8687C60.6372 87.9843 61.9636 90.7511 62.9584 93.9606L64.2847 93.518C62.8478 89.091 60.7478 85.2174 57.874 82.0079C58.5372 80.5691 60.8583 75.8101 65.5006 71.3832H70.9166V70.0551H67.048C74.2325 63.8573 83.075 61.2012 93.5754 62.0866L93.6859 60.7585C87.6067 60.2051 82.5223 60.9798 78.2116 62.3079V49.4697C83.4066 48.9163 87.3857 42.6079 87.3857 34.8608C87.3857 26.8922 83.1855 11.5085 77.4379 11.5085C71.6903 11.5085 67.4901 26.8922 67.4901 34.8608C67.4901 42.6079 71.5798 48.9163 76.6642 49.4697V62.7506C71.3587 64.7427 67.2691 67.7309 64.5058 70.4978C60.1951 74.7034 57.874 79.0197 56.8792 81.0118C55.3318 79.3517 53.5633 77.8023 51.5737 76.4742C49.142 74.8141 46.3788 73.486 43.505 72.3792V62.0866C47.5946 61.5332 50.8 56.5529 50.8 50.3551C50.8 44.8214 47.7051 31.6512 42.8418 31.6512C37.9784 31.6512 34.8836 44.8214 34.8836 50.3551C34.8836 56.5529 38.089 61.5332 42.1786 62.0866V71.8259C39.6364 71.0511 36.9837 70.3871 34.2204 69.9444C22.6147 68.1736 12.2248 70.1657 12.1143 70.1657L12.3353 71.4938C12.4459 71.4938 22.6147 69.5017 33.9993 71.2725C44.6103 73.0433 52.5685 77.3596 57.874 84.1107ZM68.8165 34.9714C68.8165 26.8922 73.0167 12.9473 77.3274 12.9473C81.6381 12.9473 85.8382 26.8922 85.8382 34.9714C85.8382 41.9439 82.4118 47.6989 77.9906 48.2523V44.268L84.5119 36.2995L83.4066 35.4141L77.88 42.0546V35.0821L82.3012 29.4377L81.1959 28.5523L77.7695 32.8686V24.7894H76.4431V32.8686L73.0167 28.5523L71.9114 29.4377L76.3326 35.0821V42.0546L70.8061 35.4141L69.7008 36.2995L76.2221 44.268V48.363C72.3535 47.5883 68.8165 41.9439 68.8165 34.9714ZM36.21 50.3551C36.21 44.1574 39.5259 33.09 42.8418 33.09C46.1577 33.09 49.4736 44.1574 49.4736 50.3551C49.4736 55.7781 46.8209 60.2051 43.505 60.6478V57.6596L48.6999 51.4618L47.5946 50.5765L43.505 55.5568V50.4658L47.042 46.0388L45.9367 45.1534L43.505 48.2523V42.1652H42.1786V48.1416L39.7469 45.0428L38.6416 45.9281L42.1786 50.3551V55.4461L38.089 50.4658L36.9837 51.3512L42.1786 57.5489V60.5371C38.8627 60.2051 36.21 55.7781 36.21 50.3551Z" fill="#7D858C"></path> <path d="M15.1519 26.3331C15.1519 30.2067 18.3572 33.4163 22.2258 33.4163C26.0944 33.4163 29.2998 30.2067 29.2998 26.3331C29.2998 22.4595 26.0944 19.25 22.2258 19.25C18.2467 19.25 15.1519 22.3489 15.1519 26.3331ZM27.8629 26.3331C27.8629 29.432 25.3207 32.0882 22.1153 32.0882C19.0204 32.0882 16.3677 29.5427 16.3677 26.3331C16.3677 23.2343 18.9099 20.5781 22.1153 20.5781C25.3207 20.5781 27.8629 23.1236 27.8629 26.3331Z" fill="#7D858C"></path> <path d="M12.7202 26.333C12.7202 31.5346 16.9204 35.7402 22.1153 35.7402C27.3103 35.7402 31.5104 31.5346 31.5104 26.333C31.5104 21.1313 27.3103 16.9257 22.1153 16.9257C17.0309 16.815 12.7202 21.1313 12.7202 26.333ZM30.1841 26.333C30.1841 30.7599 26.5365 34.4122 22.1153 34.4122C17.6941 34.4122 14.0466 30.7599 14.0466 26.333C14.0466 21.906 17.6941 18.2538 22.1153 18.2538C26.6471 18.2538 30.1841 21.7953 30.1841 26.333Z" fill="#7D858C"></path> </svg> 