<?xml version="1.0" encoding="UTF-8"?> <svg xmlns="http://www.w3.org/2000/svg" width="106" height="107" viewBox="0 0 106 107" fill="none"> <path d="M33.4659 53.984C24.4698 53.984 17.2729 61.3615 17.2729 70.2922C17.2729 79.3523 24.5983 86.6003 33.4659 86.6003C42.4619 86.6003 49.6587 79.2228 49.6587 70.2922C49.6587 61.3615 42.3334 53.984 33.4659 53.984ZM24.9839 82.3291C21.2569 79.6111 18.8151 75.2105 18.8151 70.2922C18.8151 65.3738 21.2569 60.9732 24.9839 58.2552V82.3291ZM32.9518 85.0472C30.6385 84.9177 28.4537 84.4 26.526 83.3646V57.3492C28.4537 56.3137 30.6385 55.6666 32.9518 55.6666V85.0472ZM41.3052 82.8468C39.3775 84.1411 37.0643 84.9177 34.6225 85.0472V55.6666C37.0643 55.796 39.3775 56.702 41.3052 57.8669V82.8468ZM42.8474 81.682V59.1612C46.0603 61.8792 48.1166 65.8915 48.1166 70.4216C48.1166 74.9516 46.0603 78.964 42.8474 81.682Z" fill="#7D858C"></path> <path d="M72.2775 50.4894C69.7072 50.4894 67.1369 51.0071 64.9521 51.9131C69.5787 48.2891 72.5345 42.5941 72.5345 36.2521C72.5345 25.38 63.667 16.4493 52.8717 16.4493C42.0764 16.4493 33.2089 25.38 33.2089 36.2521C33.2089 42.5941 36.1647 48.2891 40.7913 51.9131C38.6065 51.0071 36.0362 50.4894 33.5944 50.4894C22.7992 50.4894 13.9316 59.42 13.9316 70.2921C13.9316 81.1643 22.7992 90.0949 33.5944 90.0949C43.3616 90.0949 51.458 82.9763 53.0002 73.5279C54.5424 82.8468 62.6389 90.0949 72.406 90.0949C83.2013 90.0949 92.0688 81.1643 92.0688 70.2921C92.0688 59.42 83.0727 50.4894 72.2775 50.4894ZM34.7511 36.3815C34.7511 26.286 42.8475 18.1319 52.8717 18.1319C62.8959 18.1319 70.9923 26.286 70.9923 36.3815C70.9923 46.477 62.8959 54.6311 52.8717 54.6311C42.8475 54.5017 34.7511 46.3476 34.7511 36.3815ZM33.4659 88.5417C23.4418 88.5417 15.3453 80.3877 15.3453 70.2921C15.3453 60.1966 23.4418 52.0425 33.4659 52.0425C43.4901 52.0425 51.5865 60.1966 51.5865 70.2921C51.458 80.3877 43.3616 88.5417 33.4659 88.5417ZM45.5464 54.7606C47.7311 55.6666 50.3014 56.1843 52.7432 56.1843C55.3135 56.1843 57.8838 55.6666 60.0685 54.7606C56.2131 57.7374 53.5143 62.1381 52.7432 67.0564C51.9721 62.1381 49.2733 57.7374 45.5464 54.7606ZM72.2775 88.5417C62.2533 88.5417 54.1568 80.3877 54.1568 70.2921C54.1568 60.1966 62.2533 52.0425 72.2775 52.0425C82.3017 52.0425 90.3981 60.1966 90.3981 70.2921C90.2696 80.3877 82.1731 88.5417 72.2775 88.5417Z" fill="#7D858C"></path> <path d="M72.2774 53.984C63.2813 53.984 56.0845 61.3615 56.0845 70.2922C56.0845 79.3523 63.4098 86.6003 72.2774 86.6003C81.2734 86.6003 88.4703 79.2228 88.4703 70.2922C88.4703 61.3615 81.1449 53.984 72.2774 53.984ZM63.5384 82.1997C59.9399 79.4817 57.4981 75.2105 57.4981 70.2922C57.4981 65.3738 59.8114 61.1026 63.5384 58.3846V82.1997ZM71.6348 85.0472C69.3215 84.9177 67.1368 84.2706 65.2091 83.2352V57.3492C67.1368 56.3137 69.3215 55.6666 71.6348 55.5372V85.0472ZM79.8598 82.9763C77.932 84.1411 75.6188 84.9177 73.177 85.1766V55.796C75.6188 55.9254 77.932 56.702 79.8598 57.9963V82.9763ZM81.5305 81.8114V59.0318C84.8719 61.7498 86.9281 65.8915 86.9281 70.4216C86.7996 74.9516 84.7434 79.0934 81.5305 81.8114Z" fill="#7D858C"></path> <path d="M69.0644 36.3816C69.0644 27.3216 61.7391 20.0735 52.8716 20.0735C43.8755 20.0735 36.6787 27.451 36.6787 36.3816C36.6787 45.4417 44.004 52.6898 52.8716 52.6898C61.7391 52.6898 69.0644 45.3123 69.0644 36.3816ZM52.7431 21.6267C57.3696 21.6267 61.4821 23.8269 64.1809 27.1921H41.3052C44.004 23.8269 48.1165 21.6267 52.7431 21.6267ZM40.2771 28.7453H65.3375C66.4941 30.6867 67.2652 33.0165 67.3938 35.4756H38.2209C38.3494 33.1459 38.992 30.8162 40.2771 28.7453ZM38.2209 37.1582H67.3938C67.2652 39.488 66.6227 41.6883 65.466 43.6297H40.0201C38.9919 41.6883 38.3494 39.488 38.2209 37.1582ZM41.0482 45.1829H64.4379C61.7391 48.8069 57.4981 51.1366 52.7431 51.1366C47.988 51.1366 43.747 48.8069 41.0482 45.1829Z" fill="#7D858C"></path> </svg> 