<?xml version="1.0" encoding="UTF-8"?> <svg xmlns="http://www.w3.org/2000/svg" width="49" height="120" viewBox="0 0 49 120" fill="none"> <path d="M18.592 110C16.896 110 15.4 109.696 14.104 109.088C12.808 108.48 11.8 107.632 11.08 106.544C10.36 105.44 10 104.176 10 102.752V100.952C10 99.512 10.36 98.248 11.08 97.16C11.8 96.056 12.808 95.2 14.104 94.592C15.4 93.984 16.896 93.68 18.592 93.68C20.272 93.68 21.752 93.984 23.032 94.592C24.328 95.2 25.328 96.056 26.032 97.16C26.752 98.248 27.112 99.512 27.112 100.952V102.752C27.112 104.192 26.76 105.464 26.056 106.568C25.352 107.656 24.352 108.504 23.056 109.112C21.776 109.704 20.288 110 18.592 110ZM18.592 106.664C20.192 106.664 21.416 106.336 22.264 105.68C23.112 105.024 23.536 104.072 23.536 102.824V100.904C23.536 99.672 23.104 98.72 22.24 98.048C21.376 97.36 20.152 97.016 18.568 97.016C16.984 97.016 15.752 97.36 14.872 98.048C14.008 98.72 13.576 99.672 13.576 100.904V102.824C13.576 104.056 14.008 105.008 14.872 105.68C15.736 106.336 16.976 106.664 18.592 106.664Z" fill="black"></path> <path d="M38.0412 109.712H34.4412V98.552C33.7692 98.84 32.9692 98.984 32.0412 98.984H29.4972V95.624H31.8732C32.7692 95.624 33.4172 95.496 33.8172 95.24C34.2332 94.968 34.4412 94.544 34.4412 93.968H38.0412V109.712Z" fill="black"></path> </svg> 