<?xml version="1.0" encoding="UTF-8"?> <svg xmlns="http://www.w3.org/2000/svg" width="163" height="202" viewBox="0 0 163 202" fill="none"> <path d="M10 11.4H19.6V63.4H27.8V71.3H10V11.4Z" fill="black"></path> <path d="M40.2 11.4V60.7C40.2 63.1 40.8 64.6 42.3 64.6C43.8 64.6 44.3 63.1 44.3 60.7V11.4H53.9V59.9C53.9 67.7 49.6 72 42.2 72C34.8 72 30.5 67.7 30.5 59.9V11.4H40.2Z" fill="black"></path> <path d="M82.3 60.1C82.3 67.3 78.1 71.4 71.2 71.4H58.5V11.5H71.1C78 11.5 82.2 15.5 82.2 22.8V60.1H82.3ZM70.4 64.2C72 64.2 72.7 62.7 72.7 60.1V22.9C72.7 20.2 72.1 18.8 70.4 18.8H68.3V64.3H70.4V64.2Z" fill="black"></path> <path d="M86.8 11.4H96.5V71.3H86.8V11.4Z" fill="black"></path> <path d="M116.7 41.5H116.9V11.5H125.2V71.4H116.6L109.8 36.3H109.6V71.4H101.3V11.5H111.6L116.7 41.5Z" fill="black"></path> <path d="M143.6 49.3H141.7V40.6H152.9V71.5C149.8 71.5 147.6 70.5 146.9 67.7C146.2 70.1 143.5 72 140.1 72C133.9 72 129.7 67.6 129.7 59.9V22.9C129.7 15.1 134.2 10.8 141.6 10.8C149 10.8 152.9 15.1 152.9 22.9V35.3H143.8V22.2C143.8 19.7 143.2 18.2 141.6 18.2C140 18.2 139.3 19.7 139.3 22.2V60.7C139.3 63.1 139.9 64.7 141.6 64.7C142.9 64.7 143.6 63.8 143.6 62.4V49.3Z" fill="black"></path> <path d="M23.9 125.6H22V116.9H33.2V147.8C30.1 147.8 27.9 146.8 27.2 144C26.5 146.4 23.8 148.3 20.4 148.3C14.2 148.3 10 143.9 10 136.2V99.2C10 91.4 14.5 87.1 21.9 87.1C29.3 87.1 33.2 91.4 33.2 99.2V111.5H24.1V98.4C24.1 95.9 23.5 94.4 21.9 94.4C20.3 94.4 19.6 95.9 19.6 98.4V136.9C19.6 139.3 20.2 140.9 21.9 140.9C23.2 140.9 23.9 140 23.9 138.6V125.6Z" fill="black"></path> <path d="M51.7 125.3C51.7 122.7 51.1 121.3 49.4 121.3H47.3V147.7H37.6V87.8H50.2C57.1 87.8 61.3 91.8 61.3 99.1V109.5C61.3 112.9 60.4 115.7 56.6 117.5C60.4 119.4 61.3 122.2 61.3 125.7V141C61.3 143.2 61.6 145.5 62.5 147.6H52.8C51.8 145.7 51.7 143.1 51.7 141V125.3ZM51.7 99.1C51.7 96.4 51.1 95 49.4 95H47.3V114H49.4C51 114 51.7 112.5 51.7 110V99.1Z" fill="black"></path> <path d="M89.4 136.2C89.4 144 84.9 148.3 77.6 148.3C70.2 148.3 65.7 144 65.7 136.2V99.1C65.7 91.3 70.2 87 77.6 87C85 87 89.4 91.3 89.4 99.1V136.2ZM77.6 140.9C79.1 140.9 79.8 139.4 79.8 137V98.3C79.8 95.9 79.2 94.4 77.6 94.4C76 94.4 75.3 95.9 75.3 98.3V137C75.4 139.5 76 140.9 77.6 140.9Z" fill="black"></path> <path d="M103.4 87.7V137C103.4 139.4 104 140.9 105.5 140.9C107 140.9 107.5 139.4 107.5 137V87.7H117.1V136.2C117.1 144 112.8 148.3 105.4 148.3C98 148.3 93.7 144 93.7 136.2V87.7H103.4Z" fill="black"></path> <path d="M121.7 147.6V87.7H134.3C141.2 87.7 145.4 91.7 145.4 99V113.7C145.4 120.9 141.2 125 134.3 125H131.3V147.6H121.7ZM133.5 117.8C135.1 117.8 135.8 116.3 135.8 113.8V99.1C135.8 96.4 135.2 95 133.5 95H131.4V117.9H133.5V117.8Z" fill="black"></path> <path d="M10 163.8H18.6V167.4H14.4V175.5H18.1V179.1H14.4V187.5H18.6V191.1H10V163.8Z" fill="black"></path> <path d="M30.5 174.2H26.4V168.6C26.4 167.5 26.1 166.8 25.4 166.8C24.7 166.8 24.4 167.5 24.4 168.6V172C24.4 173.5 24.9 174 26 175.1L28.1 177C29.9 178.7 30.5 179.9 30.5 182.6V185.9C30.5 189.5 28.5 191.5 25.2 191.5C21.9 191.5 20 189.5 20 185.9V180.6H24.2V186.3C24.2 187.4 24.5 188.1 25.2 188.1C25.9 188.1 26.2 187.4 26.2 186.3V182.7C26.2 181.2 25.9 180.8 24.7 179.8L22.5 177.8C20.9 176.3 20.1 175 20.1 172.5V168.9C20.1 165.3 22.1 163.3 25.4 163.3C28.7 163.3 30.5 165.3 30.5 168.9V174.2Z" fill="black"></path> <path d="M38.9 167.4V191.2H34.5V167.4H31.6V163.8H41.9V167.4H38.9Z" fill="black"></path> <path d="M41.5 191.2V186.4H45.8V191.2H41.5Z" fill="black"></path> <path d="M53.2 191.2V169.6H51.3V166.3H51.5C53 166.2 54.1 166 54.6 164V163.7H57.5V191.1H53.2V191.2Z" fill="black"></path> <path d="M66.2 177.8C65.7 179 64.6 179.9 63.2 179.9C61.2 179.9 59.8 178.3 59.8 175.7V169.1C59.8 165.5 61.8 163.6 65.2 163.6C68.6 163.6 70.6 165.6 70.6 169.1V186.1C70.6 189.7 68.6 191.6 65.2 191.6C61.8 191.6 59.9 189.6 59.9 186.1V181.2H64.1V186.5C64.1 187.6 64.4 188.3 65.1 188.3C65.8 188.3 66.2 187.6 66.2 186.5V177.8ZM65.2 166.9C64.5 166.9 64.2 167.6 64.2 168.7V175.1C64.2 176.2 64.5 176.9 65.2 176.9C65.9 176.9 66.2 176.2 66.2 175.1V168.7C66.2 167.5 65.9 166.9 65.2 166.9Z" fill="black"></path> <path d="M79 177.8C78.5 179 77.4 179.9 76 179.9C74 179.9 72.6 178.3 72.6 175.7V169.1C72.6 165.5 74.6 163.6 78 163.6C81.4 163.6 83.4 165.6 83.4 169.1V186.1C83.4 189.7 81.4 191.6 78 191.6C74.6 191.6 72.7 189.6 72.7 186.1V181.2H76.9V186.5C76.9 187.6 77.2 188.3 77.9 188.3C78.6 188.3 79 187.6 79 186.5V177.8ZM78 166.9C77.3 166.9 77 167.6 77 168.7V175.1C77 176.2 77.3 176.9 78 176.9C78.7 176.9 79 176.2 79 175.1V168.7C79 167.5 78.7 166.9 78 166.9Z" fill="black"></path> <path d="M90.3 179.2H88.3V175.4H90.3C91 175.4 91.4 175 91.4 174.2V168.6C91.4 167.5 91.1 166.8 90.4 166.8C89.7 166.8 89.4 167.5 89.4 168.6V173.6H85.3V169C85.3 165.4 87 163.5 90.4 163.5C93.8 163.5 95.8 165.5 95.8 169V173.6C95.8 175.7 94.7 177 93.5 177.3C94.7 177.6 95.8 179 95.8 181.1V186C95.8 189.6 93.8 191.5 90.4 191.5C87 191.5 85.3 189.5 85.3 186V181.1H89.4V186.4C89.4 187.5 89.7 188.2 90.4 188.2C91.1 188.2 91.4 187.5 91.4 186.4V180.5C91.4 179.6 91 179.2 90.3 179.2Z" fill="black"></path> </svg> 